<?xml version="1.0" encoding="UTF-8"?>
<!DOCTYPE svg PUBLIC "-//W3C//DTD SVG 1.1//EN" "http://www.w3.org/Graphics/SVG/1.1/DTD/svg11.dtd">
<!-- Creator: CorelDRAW 2019 (64-Bit) -->
<svg xmlns="http://www.w3.org/2000/svg" xml:space="preserve" width="57.9292mm" height="37.6274mm" version="1.1" style="shape-rendering:geometricPrecision; text-rendering:geometricPrecision; image-rendering:optimizeQuality; fill-rule:evenodd; clip-rule:evenodd"
viewBox="0 0 2038.61 1324.16"
 xmlns:xlink="http://www.w3.org/1999/xlink"
 xmlns:xodm="http://www.corel.com/coreldraw/odm/2003">
 <defs>
  <style type="text/css">
   <![CDATA[
    .fil1 {fill:none}
    .fil0 {fill:#FEFEFE;fill-rule:nonzero}
   ]]>
  </style>
   <clipPath id="id0">
    <path d="M1692.22 221.03c184.45,0 333.97,149.52 333.97,333.97 0,184.45 -149.52,333.97 -333.97,333.97 -184.45,0 -333.97,-149.52 -333.97,-333.97 0,-184.45 149.52,-333.97 333.97,-333.97z"/>
   </clipPath>
 </defs>
 <g id="Vrstva_x0020_1">
  <metadata id="CorelCorpID_0Corel-Layer"/>
  <g>
  </g>
  <g style="clip-path:url(#id0)">
   <g>
    <g id="_2022988757648">
     <path class="fil0" d="M936.09 866.68l356.95 -356.95 17.67 17.44 -357.07 357.07 -17.55 -17.55zm362.01 -362.01l19.94 -19.94 17.67 17.44 -19.94 19.94 -17.67 -17.44zm24.9 -24.9l5.83 -5.83 17.67 17.44 -5.83 5.83 -17.67 -17.44zm10.88 -10.88l19.94 -19.94 17.67 17.44 -19.94 19.94 -17.67 -17.44zm24.9 -24.9l5.84 -5.84 17.66 17.44 -5.83 5.83 -17.67 -17.44zm10.88 -10.88l19.94 -19.94 17.67 17.44 -19.93 19.93 -17.67 -17.44zm24.9 -24.9l5.84 -5.84 17.67 17.44 -5.83 5.83 -17.67 -17.44zm10.88 -10.88l19.94 -19.94 17.67 17.44 -19.94 19.94 -17.67 -17.44zm24.9 -24.9l5.84 -5.84 17.67 17.44 -5.84 5.84 -17.67 -17.44zm10.88 -10.88l19.94 -19.94 17.67 17.44 -19.94 19.94 -17.67 -17.44zm24.9 -24.9l5.84 -5.84 17.67 17.44 -5.84 5.84 -17.67 -17.44zm10.88 -10.88l19.94 -19.94 17.67 17.44 -19.94 19.94 -17.67 -17.44zm24.9 -24.9l5.84 -5.84 17.67 17.44 -5.84 5.84 -17.67 -17.44zm10.89 -10.89l19.94 -19.94 17.67 17.44 -19.94 19.94 -17.67 -17.44zm24.9 -24.9l5.84 -5.84 17.67 17.44 -5.84 5.84 -17.67 -17.44zm10.88 -10.88l19.94 -19.94 17.67 17.44 -19.94 19.94 -17.67 -17.44zm24.9 -24.9l5.85 -5.85 17.66 17.44 -5.84 5.84 -17.67 -17.44zm10.89 -10.89l19.94 -19.94 17.67 17.44 -19.93 19.93 -17.67 -17.44zm24.9 -24.9l5.85 -5.85 17.66 17.44 -5.84 5.84 -17.67 -17.44zm10.88 -10.88l19.94 -19.94 17.67 17.44 -19.94 19.94 -17.67 -17.44zm24.9 -24.9l337.64 -337.64 17.55 17.55 -337.53 337.53 -17.67 -17.44z"/>
     <path class="fil0" d="M962.6 911.75l366.46 -366.46 17.67 17.44 -366.57 366.57 -17.55 -17.55zm371.52 -371.52l19.94 -19.94 17.67 17.44 -19.94 19.94 -17.67 -17.44zm24.9 -24.9l5.83 -5.83 17.66 17.44 -5.83 5.83 -17.67 -17.44zm10.89 -10.89l19.94 -19.94 17.67 17.44 -19.94 19.94 -17.67 -17.44zm24.9 -24.9l5.83 -5.83 17.67 17.44 -5.83 5.83 -17.67 -17.44zm10.89 -10.89l19.93 -19.93 17.67 17.44 -19.94 19.94 -17.67 -17.44zm24.9 -24.9l5.83 -5.83 17.67 17.44 -5.83 5.83 -17.67 -17.44zm10.88 -10.88l19.94 -19.94 17.67 17.44 -19.94 19.94 -17.67 -17.44zm24.9 -24.9l5.83 -5.83 17.67 17.44 -5.83 5.83 -17.67 -17.44zm10.88 -10.88l19.94 -19.94 17.67 17.44 -19.94 19.94 -17.67 -17.44zm24.9 -24.9l5.84 -5.84 17.67 17.44 -5.83 5.83 -17.67 -17.44zm10.89 -10.89l19.94 -19.94 17.67 17.44 -19.94 19.94 -17.67 -17.44zm24.9 -24.9l5.84 -5.84 17.66 17.44 -5.83 5.83 -17.67 -17.44zm10.88 -10.88l19.94 -19.94 17.67 17.44 -19.94 19.94 -17.67 -17.44zm24.9 -24.9l5.83 -5.83 17.67 17.44 -5.83 5.83 -17.67 -17.44zm10.88 -10.88l19.94 -19.94 17.67 17.44 -19.94 19.94 -17.67 -17.44zm24.9 -24.9l5.84 -5.84 17.67 17.44 -5.84 5.84 -17.67 -17.44zm10.89 -10.89l19.94 -19.94 17.67 17.44 -19.94 19.94 -17.67 -17.44zm24.9 -24.9l5.84 -5.84 17.67 17.44 -5.84 5.84 -17.67 -17.44zm10.88 -10.88l19.94 -19.94 17.67 17.44 -19.94 19.94 -17.67 -17.44zm24.9 -24.9l328.13 -328.13 17.55 17.55 -328.02 328.02 -17.67 -17.44z"/>
     <path class="fil0" d="M989.11 956.8l375.97 -375.97 17.67 17.44 -376.08 376.08 -17.55 -17.55zm381.02 -381.02l19.94 -19.94 17.67 17.44 -19.94 19.94 -17.67 -17.44zm24.9 -24.9l5.83 -5.83 17.67 17.44 -5.83 5.83 -17.67 -17.44zm10.89 -10.89l19.94 -19.94 17.67 17.44 -19.94 19.94 -17.67 -17.44zm24.9 -24.9l5.83 -5.83 17.67 17.44 -5.83 5.83 -17.67 -17.44zm10.89 -10.89l19.93 -19.93 17.67 17.44 -19.94 19.94 -17.67 -17.44zm24.9 -24.9l5.83 -5.83 17.67 17.44 -5.83 5.83 -17.67 -17.44zm10.88 -10.88l19.94 -19.94 17.67 17.44 -19.94 19.94 -17.67 -17.44zm24.9 -24.9l5.83 -5.83 17.67 17.44 -5.83 5.83 -17.67 -17.44zm10.88 -10.88l19.94 -19.94 17.67 17.44 -19.94 19.94 -17.67 -17.44zm24.9 -24.9l5.83 -5.83 17.67 17.44 -5.83 5.83 -17.67 -17.44zm10.89 -10.89l19.94 -19.94 17.67 17.44 -19.94 19.94 -17.67 -17.44zm24.9 -24.9l5.83 -5.83 17.67 17.44 -5.83 5.83 -17.67 -17.44zm10.88 -10.88l19.94 -19.94 17.67 17.44 -19.94 19.94 -17.67 -17.44zm24.9 -24.9l5.83 -5.83 17.67 17.44 -5.83 5.83 -17.67 -17.44zm10.88 -10.88l19.94 -19.94 17.67 17.44 -19.94 19.94 -17.67 -17.44zm24.9 -24.9l5.84 -5.84 17.66 17.44 -5.83 5.83 -17.67 -17.44zm10.89 -10.89l19.94 -19.94 17.67 17.44 -19.94 19.94 -17.67 -17.44zm24.9 -24.9l5.83 -5.83 17.67 17.44 -5.83 5.83 -17.67 -17.44zm10.88 -10.88l19.94 -19.94 17.67 17.44 -19.94 19.94 -17.67 -17.44zm24.9 -24.9l318.62 -318.62 17.55 17.55 -318.51 318.51 -17.67 -17.44z"/>
     <path class="fil0" d="M1015.62 1001.86l385.48 -385.48 17.67 17.44 -385.59 385.59 -17.55 -17.55zm390.53 -390.53l19.94 -19.94 17.67 17.44 -19.94 19.94 -17.67 -17.44zm24.9 -24.9l5.83 -5.83 17.67 17.44 -5.83 5.83 -17.67 -17.44zm10.88 -10.88l19.94 -19.94 17.67 17.44 -19.94 19.94 -17.67 -17.44zm24.9 -24.9l5.83 -5.83 17.67 17.44 -5.83 5.83 -17.67 -17.44zm10.88 -10.88l19.94 -19.94 17.67 17.44 -19.93 19.93 -17.67 -17.44zm24.9 -24.9l5.83 -5.83 17.67 17.44 -5.83 5.83 -17.67 -17.44zm10.89 -10.89l19.94 -19.94 17.67 17.44 -19.94 19.94 -17.67 -17.44zm24.9 -24.9l5.83 -5.83 17.67 17.44 -5.83 5.83 -17.67 -17.44zm10.88 -10.88l19.94 -19.94 17.67 17.44 -19.94 19.94 -17.67 -17.44zm24.9 -24.9l5.83 -5.83 17.67 17.44 -5.83 5.83 -17.67 -17.44zm10.88 -10.88l19.94 -19.94 17.67 17.44 -19.94 19.94 -17.67 -17.44zm24.9 -24.9l5.83 -5.83 17.67 17.44 -5.83 5.83 -17.67 -17.44zm10.88 -10.88l19.94 -19.94 17.67 17.44 -19.94 19.94 -17.67 -17.44zm24.9 -24.9l5.83 -5.83 17.67 17.44 -5.83 5.83 -17.67 -17.44zm10.88 -10.88l19.94 -19.94 17.67 17.44 -19.94 19.94 -17.67 -17.44zm24.9 -24.9l5.83 -5.83 17.67 17.44 -5.83 5.83 -17.67 -17.44zm10.89 -10.89l19.94 -19.94 17.67 17.44 -19.94 19.94 -17.67 -17.44zm24.9 -24.9l5.83 -5.83 17.67 17.44 -5.83 5.83 -17.67 -17.44zm10.88 -10.88l19.94 -19.94 17.67 17.44 -19.94 19.94 -17.67 -17.44zm24.9 -24.9l309.11 -309.11 17.55 17.55 -309 309 -17.67 -17.44z"/>
     <path class="fil0" d="M1042.12 1046.92l394.98 -394.98 17.67 17.44 -395.1 395.1 -17.55 -17.55zm400.04 -400.04l19.94 -19.94 17.67 17.44 -19.94 19.94 -17.67 -17.44zm24.9 -24.9l5.83 -5.83 17.67 17.44 -5.83 5.83 -17.67 -17.44zm10.88 -10.88l19.94 -19.94 17.67 17.44 -19.94 19.94 -17.67 -17.44zm24.9 -24.9l5.83 -5.83 17.67 17.44 -5.83 5.83 -17.67 -17.44zm10.88 -10.88l19.94 -19.94 17.67 17.44 -19.94 19.94 -17.67 -17.44zm24.9 -24.9l5.83 -5.83 17.67 17.44 -5.83 5.83 -17.67 -17.44zm10.89 -10.89l19.94 -19.94 17.67 17.44 -19.94 19.94 -17.67 -17.44zm24.9 -24.9l5.83 -5.83 17.67 17.44 -5.82 5.82 -17.67 -17.44zm10.88 -10.88l19.94 -19.94 17.67 17.44 -19.94 19.94 -17.67 -17.44zm24.9 -24.9l5.83 -5.83 17.67 17.44 -5.83 5.83 -17.67 -17.44zm10.88 -10.88l19.94 -19.94 17.67 17.44 -19.94 19.94 -17.67 -17.44zm24.9 -24.9l5.83 -5.83 17.67 17.44 -5.83 5.83 -17.67 -17.44zm10.88 -10.88l19.94 -19.94 17.67 17.44 -19.94 19.94 -17.67 -17.44zm24.9 -24.9l5.83 -5.83 17.67 17.44 -5.83 5.83 -17.67 -17.44zm10.88 -10.88l19.94 -19.94 17.67 17.44 -19.94 19.94 -17.67 -17.44zm24.9 -24.9l5.83 -5.83 17.67 17.44 -5.83 5.83 -17.67 -17.44zm10.89 -10.89l19.94 -19.94 17.67 17.44 -19.94 19.94 -17.67 -17.44zm24.9 -24.9l5.83 -5.83 17.67 17.44 -5.83 5.83 -17.67 -17.44zm10.88 -10.88l19.94 -19.94 17.67 17.44 -19.94 19.94 -17.67 -17.44zm24.9 -24.9l299.61 -299.61 17.55 17.55 -299.49 299.49 -17.67 -17.44z"/>
     <path class="fil0" d="M1068.63 1091.99l404.5 -404.5 17.67 17.44 -404.61 404.61 -17.55 -17.55zm409.55 -409.55l19.94 -19.94 17.67 17.44 -19.94 19.94 -17.67 -17.44zm24.9 -24.9l5.83 -5.83 17.67 17.44 -5.83 5.83 -17.67 -17.44zm10.88 -10.88l19.94 -19.94 17.67 17.44 -19.94 19.94 -17.67 -17.44zm24.9 -24.9l5.83 -5.83 17.67 17.44 -5.83 5.83 -17.67 -17.44zm10.89 -10.89l19.94 -19.94 17.67 17.44 -19.94 19.94 -17.67 -17.44zm24.9 -24.9l5.83 -5.83 17.67 17.44 -5.83 5.83 -17.67 -17.44zm10.88 -10.88l19.94 -19.94 17.67 17.44 -19.94 19.94 -17.67 -17.44zm24.9 -24.9l5.83 -5.83 17.67 17.44 -5.83 5.83 -17.67 -17.44zm10.88 -10.88l19.94 -19.94 17.67 17.44 -19.94 19.94 -17.67 -17.44zm24.9 -24.9l5.83 -5.83 17.67 17.44 -5.83 5.83 -17.67 -17.44zm10.89 -10.89l19.94 -19.94 17.67 17.44 -19.94 19.94 -17.67 -17.44zm24.9 -24.9l5.83 -5.83 17.67 17.44 -5.83 5.83 -17.67 -17.44zm10.88 -10.88l19.94 -19.94 17.67 17.44 -19.94 19.94 -17.67 -17.44zm24.9 -24.9l5.83 -5.83 17.67 17.44 -5.83 5.83 -17.67 -17.44zm10.88 -10.88l19.94 -19.94 17.67 17.44 -19.94 19.94 -17.67 -17.44zm24.9 -24.9l5.83 -5.83 17.67 17.44 -5.83 5.83 -17.67 -17.44zm10.89 -10.89l19.94 -19.94 17.67 17.44 -19.94 19.94 -17.67 -17.44zm24.9 -24.9l5.83 -5.83 17.67 17.44 -5.83 5.83 -17.67 -17.44zm10.88 -10.88l19.94 -19.94 17.67 17.44 -19.94 19.94 -17.67 -17.44zm24.9 -24.9l290.1 -290.1 17.55 17.55 -289.98 289.98 -17.67 -17.44z"/>
     <path class="fil0" d="M1095.14 1137.04l414.01 -414.01 17.67 17.44 -414.12 414.12 -17.55 -17.55zm419.06 -419.06l19.94 -19.94 17.67 17.44 -19.94 19.94 -17.67 -17.44zm24.9 -24.9l5.83 -5.83 17.67 17.44 -5.83 5.83 -17.67 -17.44zm10.88 -10.88l19.94 -19.94 17.67 17.44 -19.94 19.94 -17.67 -17.44zm24.9 -24.9l5.83 -5.83 17.67 17.44 -5.83 5.83 -17.67 -17.44zm10.88 -10.88l19.94 -19.94 17.67 17.44 -19.94 19.94 -17.67 -17.44zm24.9 -24.9l5.83 -5.83 17.67 17.44 -5.83 5.83 -17.67 -17.44zm10.89 -10.89l19.94 -19.94 17.67 17.44 -19.94 19.94 -17.66 -17.44zm24.9 -24.9l5.83 -5.83 17.67 17.44 -5.83 5.83 -17.67 -17.44zm10.88 -10.88l19.94 -19.94 17.67 17.44 -19.94 19.94 -17.67 -17.44zm24.9 -24.9l5.83 -5.83 17.67 17.44 -5.83 5.83 -17.67 -17.44zm10.88 -10.88l19.94 -19.94 17.67 17.44 -19.94 19.94 -17.67 -17.44zm24.9 -24.9l5.83 -5.83 17.67 17.44 -5.83 5.83 -17.67 -17.44zm10.88 -10.88l19.94 -19.94 17.67 17.44 -19.94 19.94 -17.67 -17.44zm24.9 -24.9l5.83 -5.83 17.67 17.43 -5.83 5.83 -17.67 -17.44zm10.88 -10.88l19.94 -19.94 17.67 17.44 -19.94 19.94 -17.67 -17.44zm24.9 -24.9l5.83 -5.83 17.67 17.44 -5.83 5.83 -17.67 -17.44zm10.88 -10.88l19.94 -19.94 17.67 17.44 -19.94 19.94 -17.67 -17.44zm24.9 -24.9l5.83 -5.83 17.66 17.44 -5.82 5.82 -17.67 -17.44zm10.88 -10.88l19.94 -19.94 17.67 17.44 -19.94 19.94 -17.67 -17.44zm24.9 -24.9l280.58 -280.59 17.55 17.55 -280.47 280.47 -17.67 -17.44z"/>
     <path class="fil0" d="M1121.64 1182.1l423.52 -423.52 17.67 17.44 -423.63 423.63 -17.55 -17.55zm428.57 -428.57l19.94 -19.94 17.67 17.44 -19.94 19.94 -17.67 -17.44zm24.9 -24.9l5.83 -5.83 17.67 17.44 -5.83 5.83 -17.67 -17.44zm10.89 -10.89l19.94 -19.94 17.67 17.44 -19.94 19.94 -17.67 -17.44zm24.9 -24.9l5.83 -5.83 17.67 17.44 -5.83 5.83 -17.67 -17.44zm10.88 -10.88l19.94 -19.94 17.67 17.44 -19.93 19.93 -17.67 -17.44zm24.9 -24.9l5.83 -5.83 17.67 17.44 -5.83 5.83 -17.67 -17.44zm10.89 -10.89l19.94 -19.94 17.67 17.44 -19.94 19.94 -17.67 -17.44zm24.9 -24.9l5.83 -5.83 17.67 17.44 -5.83 5.83 -17.67 -17.44zm10.88 -10.88l19.94 -19.94 17.67 17.44 -19.94 19.94 -17.67 -17.44zm24.9 -24.9l5.83 -5.83 17.67 17.44 -5.83 5.83 -17.67 -17.44zm10.89 -10.89l19.94 -19.94 17.67 17.44 -19.94 19.94 -17.67 -17.44zm24.9 -24.9l5.83 -5.83 17.67 17.44 -5.83 5.83 -17.67 -17.44zm10.88 -10.88l19.94 -19.94 17.67 17.44 -19.94 19.94 -17.67 -17.44zm24.9 -24.9l5.83 -5.83 17.67 17.44 -5.83 5.83 -17.67 -17.44zm10.88 -10.88l19.94 -19.94 17.67 17.44 -19.94 19.94 -17.67 -17.44zm24.9 -24.9l5.83 -5.83 17.67 17.44 -5.83 5.83 -17.67 -17.44zm10.88 -10.88l19.94 -19.94 17.67 17.44 -19.94 19.94 -17.67 -17.44zm24.9 -24.9l5.83 -5.83 17.67 17.44 -5.83 5.83 -17.67 -17.44zm10.88 -10.88l19.94 -19.94 17.67 17.44 -19.94 19.94 -17.67 -17.44zm24.9 -24.9l271.08 -271.08 17.55 17.55 -270.97 270.97 -17.67 -17.44z"/>
     <path class="fil0" d="M1148.15 1227.17l433.03 -433.03 17.67 17.44 -433.15 433.15 -17.55 -17.55zm438.08 -438.08l19.94 -19.94 17.67 17.44 -19.94 19.94 -17.67 -17.44zm24.9 -24.9l5.84 -5.84 17.67 17.44 -5.84 5.84 -17.67 -17.44zm10.88 -10.88l19.94 -19.94 17.67 17.44 -19.94 19.94 -17.67 -17.44zm24.9 -24.9l5.83 -5.83 17.67 17.44 -5.84 5.84 -17.67 -17.44zm10.88 -10.88l19.94 -19.94 17.67 17.44 -19.94 19.94 -17.67 -17.44zm24.9 -24.9l5.83 -5.83 17.67 17.44 -5.84 5.84 -17.67 -17.44zm10.88 -10.88l19.94 -19.94 17.67 17.44 -19.94 19.94 -17.67 -17.44zm24.9 -24.9l5.83 -5.83 17.67 17.44 -5.83 5.83 -17.67 -17.44zm10.88 -10.88l19.94 -19.94 17.67 17.44 -19.94 19.94 -17.67 -17.44zm24.9 -24.9l5.83 -5.83 17.67 17.44 -5.84 5.84 -17.67 -17.44zm10.88 -10.88l19.94 -19.94 17.67 17.44 -19.94 19.94 -17.67 -17.44zm24.9 -24.9l5.83 -5.83 17.67 17.44 -5.83 5.83 -17.67 -17.44zm10.88 -10.88l19.94 -19.94 17.67 17.44 -19.94 19.94 -17.67 -17.44zm24.9 -24.9l5.83 -5.83 17.67 17.44 -5.83 5.83 -17.67 -17.44zm10.88 -10.88l19.94 -19.94 17.67 17.44 -19.94 19.94 -17.67 -17.44zm24.9 -24.9l5.83 -5.83 17.67 17.44 -5.83 5.83 -17.67 -17.44zm10.89 -10.89l19.94 -19.94 17.67 17.44 -19.94 19.94 -17.67 -17.44zm24.9 -24.9l5.83 -5.83 17.67 17.44 -5.83 5.83 -17.67 -17.44zm10.88 -10.88l19.94 -19.94 17.67 17.44 -19.94 19.94 -17.67 -17.44zm24.9 -24.9l261.57 -261.57 17.55 17.55 -261.45 261.45 -17.67 -17.44z"/>
     <path class="fil0" d="M1174.66 1272.23l442.54 -442.54 17.67 17.44 -442.66 442.66 -17.55 -17.55zm447.59 -447.59l19.94 -19.94 17.67 17.44 -19.94 19.94 -17.67 -17.44zm24.9 -24.9l5.84 -5.84 17.67 17.44 -5.85 5.85 -17.67 -17.44zm10.88 -10.88l19.94 -19.94 17.67 17.44 -19.94 19.94 -17.67 -17.44zm24.9 -24.9l5.84 -5.84 17.67 17.44 -5.84 5.84 -17.67 -17.44zm10.88 -10.88l19.94 -19.94 17.67 17.44 -19.94 19.94 -17.67 -17.44zm24.9 -24.9l5.84 -5.84 17.67 17.44 -5.84 5.84 -17.67 -17.44zm10.88 -10.88l19.94 -19.94 17.67 17.44 -19.94 19.94 -17.67 -17.44zm24.9 -24.9l5.83 -5.83 17.67 17.44 -5.84 5.84 -17.67 -17.44zm10.88 -10.88l19.94 -19.94 17.67 17.44 -19.94 19.94 -17.67 -17.44zm24.9 -24.9l5.84 -5.84 17.67 17.44 -5.84 5.84 -17.67 -17.44zm10.88 -10.88l19.94 -19.94 17.67 17.44 -19.94 19.94 -17.67 -17.44zm24.9 -24.9l5.84 -5.84 17.67 17.44 -5.84 5.84 -17.67 -17.44zm10.88 -10.88l19.94 -19.94 17.67 17.44 -19.94 19.94 -17.67 -17.44zm24.9 -24.9l5.83 -5.83 17.67 17.44 -5.84 5.84 -17.67 -17.44zm10.88 -10.88l19.94 -19.94 17.67 17.44 -19.94 19.94 -17.67 -17.44zm24.9 -24.9l5.84 -5.84 17.67 17.44 -5.84 5.84 -17.67 -17.44zm10.89 -10.89l19.94 -19.94 17.67 17.44 -19.94 19.94 -17.67 -17.44zm24.9 -24.9l5.83 -5.83 17.67 17.44 -5.83 5.83 -17.67 -17.44zm10.88 -10.88l19.94 -19.94 17.67 17.44 -19.94 19.94 -17.67 -17.44zm24.9 -24.9l252.06 -252.06 17.55 17.55 -251.95 251.95 -17.67 -17.44z"/>
     <path class="fil0" d="M1201.17 1317.28l452.05 -452.06 17.67 17.44 -452.17 452.17 -17.55 -17.55zm457.09 -457.09l19.94 -19.94 17.67 17.44 -19.94 19.94 -17.67 -17.44zm24.9 -24.9l5.85 -5.85 17.67 17.44 -5.85 5.85 -17.67 -17.44zm10.88 -10.88l19.94 -19.94 17.67 17.44 -19.94 19.94 -17.67 -17.44zm24.9 -24.9l5.84 -5.84 17.67 17.44 -5.85 5.85 -17.67 -17.44zm10.88 -10.88l19.94 -19.94 17.67 17.44 -19.94 19.94 -17.67 -17.44zm24.9 -24.9l5.84 -5.84 17.67 17.44 -5.85 5.85 -17.67 -17.44zm10.88 -10.88l19.94 -19.94 17.67 17.44 -19.94 19.94 -17.67 -17.44zm24.9 -24.9l5.84 -5.84 17.67 17.44 -5.84 5.84 -17.67 -17.44zm10.88 -10.88l19.94 -19.94 17.67 17.44 -19.94 19.94 -17.67 -17.44zm24.9 -24.9l5.84 -5.84 17.67 17.44 -5.84 5.84 -17.67 -17.44zm10.88 -10.88l19.94 -19.94 17.67 17.44 -19.94 19.94 -17.67 -17.44zm24.9 -24.9l5.84 -5.84 17.67 17.44 -5.84 5.84 -17.67 -17.44zm10.88 -10.88l19.94 -19.94 17.67 17.44 -19.94 19.94 -17.67 -17.44zm24.9 -24.9l5.84 -5.84 17.67 17.44 -5.84 5.84 -17.67 -17.44zm10.88 -10.88l19.94 -19.94 17.67 17.44 -19.94 19.94 -17.67 -17.44zm24.9 -24.9l5.84 -5.84 17.67 17.44 -5.84 5.84 -17.67 -17.44zm10.89 -10.89l19.94 -19.94 17.67 17.44 -19.94 19.94 -17.67 -17.44zm24.9 -24.9l5.84 -5.84 17.67 17.44 -5.83 5.83 -17.67 -17.44zm10.88 -10.88l19.94 -19.94 17.67 17.44 -19.94 19.94 -17.67 -17.44zm24.9 -24.9l242.55 -242.55 17.55 17.55 -242.44 242.44 -17.67 -17.44z"/>
     <path class="fil0" d="M1227.67 1362.35l461.57 -461.57 17.67 17.44 -461.69 461.69 -17.55 -17.55zm466.61 -466.61l19.94 -19.94 17.67 17.44 -19.94 19.94 -17.67 -17.44zm24.9 -24.9l5.85 -5.85 17.67 17.44 -5.86 5.86 -17.67 -17.44zm10.88 -10.88l19.94 -19.94 17.67 17.44 -19.94 19.94 -17.67 -17.44zm24.9 -24.9l5.85 -5.85 17.67 17.44 -5.85 5.85 -17.67 -17.44zm10.88 -10.88l19.94 -19.94 17.67 17.44 -19.94 19.94 -17.67 -17.44zm24.9 -24.9l5.85 -5.85 17.67 17.44 -5.85 5.85 -17.67 -17.44zm10.88 -10.88l19.94 -19.94 17.67 17.44 -19.94 19.94 -17.67 -17.44zm24.9 -24.9l5.85 -5.85 17.67 17.44 -5.85 5.85 -17.67 -17.44zm10.88 -10.88l19.94 -19.94 17.67 17.44 -19.94 19.94 -17.67 -17.44zm24.9 -24.9l5.85 -5.85 17.67 17.44 -5.85 5.85 -17.67 -17.44zm10.88 -10.88l19.94 -19.94 17.67 17.44 -19.94 19.94 -17.67 -17.44zm24.9 -24.9l5.84 -5.84 17.67 17.44 -5.85 5.85 -17.67 -17.44zm10.88 -10.88l19.94 -19.94 17.67 17.44 -19.94 19.94 -17.67 -17.44zm24.9 -24.9l5.84 -5.84 17.67 17.43 -5.85 5.85 -17.67 -17.44zm10.88 -10.88l19.94 -19.94 17.67 17.44 -19.94 19.94 -17.67 -17.44zm24.9 -24.9l5.85 -5.85 17.67 17.44 -5.85 5.85 -17.67 -17.44zm10.89 -10.89l19.94 -19.94 17.67 17.44 -19.94 19.94 -17.67 -17.44zm24.9 -24.9l5.84 -5.84 17.67 17.44 -5.84 5.84 -17.67 -17.44zm10.88 -10.88l19.94 -19.94 17.67 17.44 -19.94 19.94 -17.67 -17.44zm24.9 -24.9l233.04 -233.04 17.55 17.55 -232.93 232.93 -17.67 -17.44z"/>
     <path class="fil0" d="M1254.18 1407.41l471.09 -471.09 17.67 17.44 -471.2 471.2 -17.55 -17.55zm476.12 -476.12l19.94 -19.94 17.67 17.44 -19.94 19.94 -17.67 -17.44zm24.9 -24.9l5.86 -5.86 17.67 17.44 -5.86 5.86 -17.67 -17.44zm10.88 -10.88l19.94 -19.94 17.67 17.44 -19.94 19.94 -17.67 -17.44zm24.9 -24.9l5.86 -5.86 17.67 17.44 -5.86 5.86 -17.67 -17.44zm10.88 -10.88l19.94 -19.94 17.67 17.44 -19.94 19.94 -17.67 -17.44zm24.9 -24.9l5.85 -5.85 17.67 17.43 -5.86 5.86 -17.67 -17.44zm10.88 -10.88l19.94 -19.94 17.67 17.44 -19.94 19.94 -17.67 -17.44zm24.9 -24.9l5.85 -5.85 17.67 17.44 -5.85 5.85 -17.67 -17.44zm10.88 -10.88l19.94 -19.94 17.67 17.44 -19.94 19.94 -17.67 -17.44zm24.9 -24.9l5.85 -5.85 17.67 17.44 -5.86 5.86 -17.67 -17.44zm10.88 -10.88l19.94 -19.94 17.67 17.44 -19.94 19.94 -17.67 -17.44zm24.9 -24.9l5.85 -5.85 17.67 17.44 -5.85 5.85 -17.67 -17.44zm10.88 -10.88l19.94 -19.94 17.67 17.44 -19.94 19.94 -17.67 -17.44zm24.9 -24.9l5.85 -5.85 17.67 17.44 -5.85 5.85 -17.67 -17.44zm10.88 -10.88l19.94 -19.94 17.67 17.44 -19.94 19.94 -17.67 -17.44zm24.9 -24.9l5.85 -5.85 17.67 17.43 -5.85 5.85 -17.67 -17.44zm10.89 -10.89l19.94 -19.94 17.67 17.44 -19.94 19.94 -17.67 -17.44zm24.9 -24.9l5.84 -5.84 17.67 17.44 -5.85 5.85 -17.67 -17.44zm10.88 -10.88l19.94 -19.94 17.67 17.44 -19.94 19.94 -17.67 -17.44zm24.9 -24.9l223.53 -223.53 17.55 17.55 -223.42 223.42 -17.67 -17.44z"/>
     <path class="fil0" d="M1280.69 1452.47l480.6 -480.6 17.67 17.43 -480.72 480.72 -17.55 -17.55zm485.62 -485.62l19.94 -19.94 17.67 17.44 -19.94 19.94 -17.67 -17.44zm24.9 -24.9l5.87 -5.87 17.67 17.44 -5.87 5.87 -17.67 -17.44zm10.88 -10.88l19.94 -19.94 17.67 17.44 -19.94 19.94 -17.67 -17.44zm24.9 -24.9l5.86 -5.86 17.67 17.43 -5.87 5.87 -17.67 -17.44zm10.88 -10.88l19.94 -19.94 17.67 17.44 -19.94 19.94 -17.67 -17.44zm24.9 -24.9l5.86 -5.86 17.67 17.43 -5.87 5.87 -17.67 -17.44zm10.88 -10.88l19.94 -19.94 17.67 17.44 -19.94 19.94 -17.67 -17.44zm24.9 -24.9l5.86 -5.86 17.67 17.44 -5.86 5.86 -17.67 -17.44zm10.88 -10.88l19.94 -19.94 17.67 17.44 -19.94 19.94 -17.67 -17.44zm24.9 -24.9l5.86 -5.86 17.67 17.43 -5.86 5.86 -17.67 -17.44zm10.88 -10.88l19.94 -19.94 17.67 17.44 -19.94 19.94 -17.67 -17.44zm24.9 -24.9l5.85 -5.85 17.67 17.44 -5.86 5.86 -17.67 -17.44zm10.88 -10.88l19.94 -19.94 17.67 17.44 -19.94 19.94 -17.67 -17.44zm24.9 -24.9l5.86 -5.86 17.67 17.44 -5.86 5.86 -17.67 -17.44zm10.88 -10.88l19.94 -19.94 17.67 17.44 -19.94 19.94 -17.67 -17.44zm24.9 -24.9l5.86 -5.86 17.67 17.44 -5.86 5.86 -17.67 -17.44zm10.89 -10.89l19.94 -19.94 17.67 17.44 -19.94 19.94 -17.67 -17.44zm24.9 -24.9l5.85 -5.85 17.67 17.44 -5.85 5.85 -17.67 -17.44zm10.88 -10.88l19.94 -19.94 17.67 17.44 -19.94 19.94 -17.67 -17.44zm24.9 -24.9l214.02 -214.02 17.55 17.55 -213.91 213.91 -17.67 -17.44z"/>
    </g>
    <polygon class="fil0" points="1395.35,-78.9 2448.73,960.88 2428.96,980.98 1375.58,-58.8 "/>
    <polygon class="fil0" points="1350.47,-52.1 2403.85,987.68 2384.08,1007.78 1330.7,-32 "/>
    <polygon class="fil0" points="1305.58,-25.3 2358.96,1014.48 2339.19,1034.58 1285.81,-5.2 "/>
    <polygon class="fil0" points="1260.69,1.5 2314.07,1041.28 2294.3,1061.38 1240.92,21.6 "/>
    <polygon class="fil0" points="1215.81,28.3 2269.19,1068.08 2249.42,1088.18 1196.04,48.4 "/>
    <polygon class="fil0" points="1170.92,55.09 2224.3,1094.88 2204.53,1114.98 1151.15,75.19 "/>
    <polygon class="fil0" points="1126.03,81.89 2179.41,1121.68 2159.64,1141.78 1106.26,101.99 "/>
    <polygon class="fil0" points="1081.15,108.69 2134.53,1148.48 2114.76,1168.58 1061.38,128.79 "/>
    <polygon class="fil0" points="1036.26,135.49 2089.64,1175.28 2069.87,1195.37 1016.49,155.59 "/>
    <polygon class="fil0" points="991.37,162.29 2044.75,1202.07 2024.98,1222.18 971.6,182.39 "/>
   </g>
  </g>
  <path class="fil1" d="M1692.22 221.03c184.45,0 333.97,149.52 333.97,333.97 0,184.45 -149.52,333.97 -333.97,333.97 -184.45,0 -333.97,-149.52 -333.97,-333.97 0,-184.45 149.52,-333.97 333.97,-333.97z"/>
  <path class="fil0" d="M534.78 587.58c3.59,-5.22 9.43,-13.87 15.2,-22.4 31.4,-46.47 62.83,-92.95 96.31,-109.69 14.04,-7.02 22.03,-11.53 22.32,-14.21 0.35,-3.26 -6.66,-9.96 -22.57,-22.26 -67.15,-51.89 -94.74,-69.1 -131.71,-92.15 -17.35,-10.81 -36.76,-22.92 -63.72,-40.78 -2.98,-1.97 -5.94,-4.49 -8.8,-7.46 -11.46,-11.91 -22.12,-32.4 -26.6,-54.58 -2.3,-11.39 -3.02,-23.32 -1.48,-34.95 -7.44,9.54 -9.96,20.27 -13.47,35.28 -6.05,25.81 -14.62,62.42 -47.55,121.04 -19.18,34.14 -36.09,67.14 -52.26,98.7 -48.58,94.79 -90.79,177.17 -151.19,212.29 -37.75,21.94 -73.73,43.01 -97.15,67.28 -21.71,22.5 -32.79,48.42 -24.22,81.96 9.09,35.54 36.57,57.84 69.31,84.42 33.56,27.23 72.28,58.65 104.84,112.92 12.54,20.91 23.12,40.8 33.5,60.33 44.45,83.62 85.48,160.8 217.57,202.95 77.61,24.77 133.94,34.43 171.47,32.99 16,-0.61 28.15,-3.25 36.69,-7.56 6.97,-3.52 11.24,-8.12 12.97,-13.56 0.82,-2.55 1.15,-5.44 1.03,-8.61 -1.25,-32.61 -19.7,-52.39 -44.13,-78.58 -6.5,-6.97 -13.41,-14.38 -20.92,-23.01l-4.55 -5.17 0.03 -0.02c-34.87,-39.98 -66.67,-76.45 -101.78,-181.77 -5.05,-15.14 -11.57,-31.74 -18.26,-48.74 -39.08,-99.39 -83.65,-212.79 49.1,-344.67zm1157.45 -378.97c95.65,0 182.25,38.77 244.93,101.46 62.68,62.68 101.46,149.28 101.46,244.93 0,95.65 -38.77,182.25 -101.46,244.93 -62.68,62.68 -149.28,101.46 -244.93,101.46 -95.65,0 -182.25,-38.77 -244.93,-101.46 -62.68,-62.68 -101.46,-149.28 -101.46,-244.93 0,-80.59 27.53,-154.75 73.69,-213.6 -141.02,63.46 -189.36,50.75 -373.02,-203.21 -189.42,-261.94 -574.53,10.26 -594.06,24.3 -2.33,2.32 -4.35,4.8 -6.08,7.41 -9.34,14.11 -10.34,32.33 -6.91,49.31 3.54,17.51 11.62,33.35 20.2,42.26 1.58,1.64 3.15,2.99 4.63,3.97 26.19,17.35 45.7,29.52 63.14,40.39 37.44,23.34 65.36,40.76 133.75,93.61 23.49,18.16 33.51,31.16 32.07,44.47 -1.5,13.88 -14.12,22.82 -35.9,33.71 -27.54,13.77 -57.18,57.61 -86.8,101.45 -4.5,6.66 -8.92,13.2 -16.03,23.5l-0.67 0.97 -0.83 0.82c-122.17,120.72 -80.64,226.32 -44.25,318.87 6.58,16.73 13,33.05 18.64,50 33.51,100.53 63.77,135.23 96.95,173.27l0.05 0 4.53 5.24c6.8,7.82 13.78,15.3 20.36,22.36 27.98,30 49.11,52.65 50.72,94.58 0.23,5.95 -0.5,11.63 -2.2,16.96 -3.81,11.95 -12.18,21.54 -25.39,28.2 -11.63,5.87 -27.22,9.42 -46.97,10.17 -40.11,1.54 -99.29,-8.46 -179.81,-34.15 -141.87,-45.27 -185.14,-126.67 -232.03,-214.88 -10.56,-19.86 -21.31,-40.09 -32.82,-59.27 -30.29,-50.49 -67.21,-80.45 -99.22,-106.42 -36.24,-29.4 -66.64,-54.08 -77.75,-97.52 -11.12,-43.48 2.87,-76.69 30.42,-105.24 25.84,-26.78 63.31,-48.72 102.59,-71.55 54.16,-31.49 94.81,-110.82 141.59,-202.1 16.7,-32.59 34.17,-66.67 52.65,-99.58 31.2,-55.56 39.31,-90.15 45.02,-114.54 8.45,-36.1 12.4,-52.9 61.94,-76.39 20.55,-14.78 424.86,-300.38 628.54,-18.73 193.03,266.91 226.27,251.08 395.88,170.25l4.82 -2.29c60.52,-51.73 139.08,-82.98 224.94,-82.98zm227.38 119.01c-58.18,-58.19 -138.58,-94.18 -227.38,-94.18 -88.8,0 -169.19,35.99 -227.38,94.18 -58.19,58.18 -94.18,138.58 -94.18,227.38 0,88.8 35.99,169.19 94.18,227.38 58.18,58.19 138.58,94.18 227.38,94.18 88.79,0 169.19,-35.99 227.38,-94.18 58.19,-58.18 94.18,-138.58 94.18,-227.38 0,-88.79 -35.99,-169.19 -94.18,-227.38z"/>
 </g>
</svg>
