<?xml version="1.0" encoding="UTF-8"?>
<!DOCTYPE svg PUBLIC "-//W3C//DTD SVG 1.1//EN" "http://www.w3.org/Graphics/SVG/1.1/DTD/svg11.dtd">
<!-- Creator: CorelDRAW 2019 (64-Bit) -->
<svg xmlns="http://www.w3.org/2000/svg" xml:space="preserve" width="32.2312mm" height="30.3111mm" version="1.1" style="shape-rendering:geometricPrecision; text-rendering:geometricPrecision; image-rendering:optimizeQuality; fill-rule:evenodd; clip-rule:evenodd"
viewBox="0 0 977.63 919.39"
 xmlns:xlink="http://www.w3.org/1999/xlink"
 xmlns:xodm="http://www.corel.com/coreldraw/odm/2003">
 <defs>
  <style type="text/css">
   <![CDATA[
    .fil0 {fill:#FEFEFE;fill-rule:nonzero}
   ]]>
  </style>
 </defs>
 <g id="Vrstva_x0020_1">
  <metadata id="CorelCorpID_0Corel-Layer"/>
  <path class="fil0" d="M154.25 372.62c-8.05,-11.67 -26.12,-31.51 -46.93,-54.36 -23.29,-25.58 -49.98,-54.87 -70.93,-81.98 -30.86,-39.94 -48.56,-75.83 -26.64,-92.77 19.51,-15.08 35.8,-27.92 49.32,-38.58 33.73,-26.59 49.54,-39.06 95.61,-69.57 9.8,-6.49 20.8,-12.13 33.28,-17.6 12.01,-5.27 25.61,-10.46 40.97,-16.19l4.19 -1.57 4.05 1.9c16.11,7.57 26.39,15.36 33.5,24.26 5.52,-2.9 11.39,-5.67 17.61,-8.4 12.01,-5.27 25.61,-10.46 40.97,-16.19l4.19 -1.57 4.05 1.9c16.11,7.57 26.39,15.36 33.5,24.26 5.52,-2.9 11.39,-5.67 17.61,-8.4 12.01,-5.27 25.61,-10.46 40.97,-16.19l4.19 -1.57 4.05 1.9c16.11,7.57 26.39,15.36 33.5,24.26 5.52,-2.9 11.39,-5.67 17.61,-8.4 12.01,-5.27 25.61,-10.46 40.97,-16.19l4.19 -1.57 4.05 1.9c16.11,7.57 26.39,15.36 33.5,24.26 5.52,-2.9 11.39,-5.67 17.61,-8.4 12.01,-5.27 25.61,-10.46 40.97,-16.19l4.19 -1.57 4.05 1.9c39.03,18.33 43.86,37.96 52.13,71.52 5.57,22.61 12.9,52.39 36.27,94 13.96,24.85 27.2,50.7 39.87,75.42 35.32,68.91 66.01,128.8 106.68,152.44 29.81,17.33 58.26,33.99 77.94,54.39 21.17,21.93 31.91,47.45 23.36,80.88 -8.51,33.29 -31.68,52.1 -59.3,74.51 -24.14,19.59 -51.99,42.2 -74.8,80.21 -8.66,14.43 -16.81,29.76 -24.81,44.8 -35.62,67.01 -68.5,128.85 -176.4,163.28 -61.1,19.5 -106.04,27.09 -136.55,25.91 -14.18,-0.54 -25.59,-2.98 -34.35,-7 -26.82,5.52 -48.71,7.66 -65.97,7 -14.18,-0.54 -25.59,-2.98 -34.35,-7 -26.82,5.52 -48.71,7.66 -65.97,7 -14.18,-0.54 -25.59,-2.98 -34.35,-7 -26.82,5.52 -48.71,7.66 -65.97,7 -14.18,-0.54 -25.59,-2.98 -34.35,-7 -26.82,5.52 -48.71,7.66 -65.97,7 -15.14,-0.58 -27.13,-3.32 -36.09,-7.84 -10.32,-5.21 -16.88,-12.73 -19.87,-22.11 -1.33,-4.18 -1.9,-8.62 -1.72,-13.27 1.24,-32.23 17.38,-49.53 38.74,-72.44 4.72,-5.06 9.72,-10.43 15.38,-16.93l0.04 0 3.42 -3.92c25.03,-28.69 47.85,-54.86 73.14,-130.72 4.31,-12.92 9.16,-25.27 14.13,-37.91 27.4,-69.68 58.66,-149.2 -33.2,-239.97l-0.72 -0.71 -0.58 -0.84zm398.34 -335.03c-4.68,-5.25 -10.89,-9.97 -19.54,-14.44 -13.12,4.93 -24.91,9.48 -35.59,14.17 -11.36,4.98 -21.3,10.07 -30.03,15.84 -45.13,29.89 -60.79,42.24 -94.19,68.57 -12.31,9.7 -27.16,21.41 -49.49,38.67 -8.79,6.79 6.96,32.39 30.49,62.84 20.22,26.16 46.71,55.26 69.84,80.65 20.8,22.84 38.93,42.74 48.11,55.8 101.02,100.4 67.13,186.63 37.41,262.23 -5.07,12.88 -10.01,25.45 -13.8,36.83 -26.66,79.99 -50.82,107.69 -77.32,138.07l-3.4 3.9 0.02 0.02c-5.18,5.96 -10.7,11.87 -15.88,17.43 -18.31,19.63 -32.13,34.45 -33.06,58.64 -0.08,2.26 0.15,4.3 0.72,6.08 1.2,3.77 4.22,7 9.17,9.49 6.3,3.18 15.32,5.13 27.23,5.58 12.41,0.48 27.56,-0.66 45.61,-3.67 -0.79,-1.59 -1.46,-3.25 -2,-4.97 -1.33,-4.18 -1.9,-8.62 -1.72,-13.27 1.24,-32.23 17.38,-49.53 38.74,-72.44 4.72,-5.06 9.72,-10.43 15.38,-16.93l0.04 0 3.42 -3.92c25.03,-28.69 47.85,-54.86 73.14,-130.72 4.31,-12.92 9.16,-25.27 14.13,-37.91 27.4,-69.68 58.66,-149.2 -33.2,-239.97l-0.72 -0.71 -0.58 -0.84c-8.05,-11.67 -26.12,-31.51 -46.93,-54.36 -23.29,-25.58 -49.98,-54.87 -70.93,-81.98 -30.86,-39.94 -48.56,-75.83 -26.64,-92.77 19.51,-15.08 35.8,-27.92 49.32,-38.58 32.89,-25.93 48.75,-38.43 92.24,-67.34zm-28.2 266.29c20.8,22.84 38.93,42.74 48.11,55.8 101.02,100.4 67.13,186.63 37.41,262.23 -5.07,12.88 -10.01,25.45 -13.8,36.83 -26.66,79.99 -50.82,107.69 -77.32,138.07l-3.4 3.9 0.02 0.02c-5.18,5.96 -10.7,11.87 -15.88,17.43 -18.31,19.63 -32.13,34.45 -33.06,58.64 -0.08,2.26 0.15,4.3 0.72,6.08 1.2,3.77 4.22,7 9.17,9.49 6.3,3.18 15.32,5.13 27.23,5.58 28.27,1.09 70.76,-6.21 129.36,-24.91 99.48,-31.75 130.41,-89.94 163.93,-153 7.85,-14.77 15.85,-29.81 25.39,-45.72 24.76,-41.27 54.16,-65.13 79.65,-85.81 24.61,-19.96 45.25,-36.72 52.03,-63.22 6.36,-24.87 -1.88,-44.11 -18.01,-60.82 -17.6,-18.24 -44.76,-34.14 -73.25,-50.7 -46.04,-26.77 -78.09,-89.29 -114.95,-161.22 -12.21,-23.84 -24.99,-48.77 -39.54,-74.67 -24.75,-44.07 -32.49,-75.5 -38.37,-99.36 -6.42,-26.08 -10.31,-41.85 -36.48,-55.37 -13.12,4.93 -24.91,9.48 -35.59,14.17 -11.36,4.98 -21.3,10.07 -30.03,15.84 -45.13,29.89 -60.79,42.24 -94.19,68.57 -12.31,9.7 -27.16,21.41 -49.49,38.67 -8.79,6.79 6.96,32.39 30.49,62.84 20.22,26.16 46.71,55.26 69.84,80.65zm-72.12 -266.29c-4.68,-5.25 -10.89,-9.97 -19.54,-14.44 -13.12,4.93 -24.91,9.48 -35.59,14.17 -11.36,4.98 -21.3,10.07 -30.03,15.84 -45.13,29.89 -60.79,42.24 -94.19,68.57 -12.31,9.7 -27.16,21.41 -49.49,38.67 -8.79,6.79 6.96,32.39 30.49,62.84 20.22,26.16 46.71,55.26 69.84,80.65 20.8,22.84 38.93,42.74 48.11,55.8 101.02,100.4 67.13,186.63 37.41,262.23 -5.07,12.88 -10.01,25.45 -13.8,36.83 -26.66,79.99 -50.82,107.69 -77.32,138.07l-3.4 3.9 0.02 0.02c-5.18,5.96 -10.7,11.87 -15.88,17.43 -18.31,19.63 -32.13,34.45 -33.06,58.64 -0.08,2.26 0.15,4.3 0.72,6.08 1.2,3.77 4.22,7 9.17,9.49 6.3,3.18 15.32,5.13 27.23,5.58 12.41,0.48 27.56,-0.66 45.61,-3.67 -0.79,-1.59 -1.46,-3.25 -2,-4.97 -1.33,-4.18 -1.9,-8.62 -1.72,-13.27 1.24,-32.23 17.38,-49.53 38.74,-72.44 4.72,-5.06 9.72,-10.43 15.38,-16.93l0.04 0 3.42 -3.92c25.03,-28.69 47.85,-54.86 73.14,-130.72 4.31,-12.92 9.16,-25.27 14.13,-37.91 27.4,-69.68 58.66,-149.2 -33.2,-239.97l-0.72 -0.71 -0.58 -0.84c-8.05,-11.67 -26.12,-31.51 -46.93,-54.36 -23.29,-25.58 -49.98,-54.87 -70.93,-81.98 -30.86,-39.94 -48.56,-75.83 -26.64,-92.77 19.51,-15.08 35.8,-27.92 49.32,-38.58 32.89,-25.93 48.75,-38.43 92.24,-67.34zm-100.32 0c-4.68,-5.25 -10.89,-9.97 -19.54,-14.44 -13.12,4.93 -24.91,9.48 -35.59,14.17 -11.36,4.98 -21.3,10.07 -30.03,15.84 -45.13,29.89 -60.79,42.24 -94.19,68.57 -12.31,9.7 -27.16,21.41 -49.49,38.67 -8.79,6.79 6.96,32.39 30.49,62.84 20.22,26.16 46.71,55.26 69.84,80.65 20.8,22.84 38.93,42.74 48.11,55.8 101.02,100.4 67.13,186.63 37.41,262.23 -5.07,12.88 -10.01,25.45 -13.8,36.83 -26.66,79.99 -50.82,107.69 -77.32,138.07l-3.4 3.9 0.02 0.02c-5.18,5.96 -10.7,11.87 -15.88,17.43 -18.31,19.63 -32.13,34.45 -33.06,58.64 -0.08,2.26 0.15,4.3 0.72,6.08 1.2,3.77 4.22,7 9.17,9.49 6.3,3.18 15.32,5.13 27.23,5.58 12.41,0.48 27.56,-0.66 45.61,-3.67 -0.79,-1.59 -1.46,-3.25 -2,-4.97 -1.33,-4.18 -1.9,-8.62 -1.72,-13.27 1.24,-32.23 17.38,-49.53 38.74,-72.44 4.72,-5.06 9.72,-10.43 15.38,-16.93l0.04 0 3.42 -3.92c25.03,-28.69 47.85,-54.86 73.14,-130.72 4.31,-12.92 9.16,-25.27 14.13,-37.91 27.4,-69.68 58.66,-149.2 -33.2,-239.97l-0.72 -0.71 -0.58 -0.84c-8.05,-11.67 -26.12,-31.51 -46.93,-54.36 -23.29,-25.58 -49.98,-54.87 -70.93,-81.98 -30.86,-39.94 -48.56,-75.83 -26.64,-92.77 19.51,-15.08 35.8,-27.92 49.32,-38.58 32.89,-25.93 48.75,-38.43 92.24,-67.34zm-100.32 0c-4.68,-5.25 -10.89,-9.97 -19.54,-14.44 -13.12,4.93 -24.91,9.48 -35.59,14.17 -11.36,4.98 -21.3,10.07 -30.03,15.84 -45.13,29.89 -60.79,42.24 -94.19,68.57 -12.31,9.7 -27.16,21.41 -49.49,38.67 -8.79,6.79 6.96,32.39 30.49,62.84 20.22,26.16 46.71,55.26 69.84,80.65 20.8,22.84 38.93,42.74 48.11,55.8 101.02,100.4 67.13,186.63 37.41,262.23 -5.07,12.88 -10.01,25.45 -13.8,36.83 -26.66,79.99 -50.82,107.69 -77.32,138.07l-3.4 3.9 0.02 0.02c-5.18,5.96 -10.7,11.87 -15.88,17.43 -18.31,19.63 -32.13,34.45 -33.06,58.64 -0.08,2.26 0.15,4.3 0.72,6.08 1.2,3.77 4.22,7 9.17,9.49 6.3,3.18 15.32,5.13 27.23,5.58 12.41,0.48 27.56,-0.66 45.61,-3.67 -0.79,-1.59 -1.46,-3.25 -2,-4.97 -1.33,-4.18 -1.9,-8.62 -1.72,-13.27 1.24,-32.23 17.38,-49.53 38.74,-72.44 4.72,-5.06 9.72,-10.43 15.38,-16.93l0.04 0 3.42 -3.92c25.03,-28.69 47.85,-54.86 73.14,-130.72 4.31,-12.92 9.16,-25.27 14.13,-37.91 27.4,-69.68 58.66,-149.2 -33.2,-239.97l-0.72 -0.71 -0.58 -0.84c-8.05,-11.67 -26.12,-31.51 -46.93,-54.36 -23.29,-25.58 -49.98,-54.87 -70.93,-81.98 -30.86,-39.94 -48.56,-75.83 -26.64,-92.77 19.51,-15.08 35.8,-27.92 49.32,-38.58 32.89,-25.93 48.75,-38.43 92.24,-67.34z"/>
 </g>
</svg>
