<?xml version="1.0" encoding="UTF-8"?>
<!DOCTYPE svg PUBLIC "-//W3C//DTD SVG 1.1//EN" "http://www.w3.org/Graphics/SVG/1.1/DTD/svg11.dtd">
<!-- Creator: CorelDRAW 2019 (64-Bit) -->
<svg xmlns="http://www.w3.org/2000/svg" xml:space="preserve" width="30.3252mm" height="27.7609mm" version="1.1" style="shape-rendering:geometricPrecision; text-rendering:geometricPrecision; image-rendering:optimizeQuality; fill-rule:evenodd; clip-rule:evenodd"
viewBox="0 0 1168.35 1069.55"
 xmlns:xlink="http://www.w3.org/1999/xlink"
 xmlns:xodm="http://www.corel.com/coreldraw/odm/2003">
 <defs>
  <style type="text/css">
   <![CDATA[
    .str0 {stroke:#FEFEFE;stroke-width:18.55;stroke-miterlimit:22.9256}
    .fil1 {fill:none}
    .fil0 {fill:#FEFEFE}
   ]]>
  </style>
     <clipPath id="id0">
      <path d="M223.16 765.66l-206.48 165.38 39.98 -261.5 369.04 -639.19 0 0c15.85,-27.44 65.96,-28.17 111.94,-1.63 45.97,26.55 70.4,70.31 54.56,97.76l0 0 -369.04 639.19z"/>
     </clipPath>
 </defs>
 <g id="Vrstva_x0020_1">
  <metadata id="CorelCorpID_0Corel-Layer"/>
  <g id="_2059337252448">
   <g>
    <g>
    </g>
    <g style="clip-path:url(#id0)">
     <g>
      <path class="fil0" d="M-58.64 1061.5l15.81 -219.63c15.84,-27.44 65.96,-28.17 111.94,-1.63 45.97,26.55 70.4,70.31 54.56,97.76l-182.3 123.51z"/>
     </g>
    </g>
    <path class="fil1 str0" d="M223.16 765.66l-206.48 165.38 39.98 -261.5 369.04 -639.19 0 0c15.85,-27.44 65.96,-28.17 111.94,-1.63 45.97,26.55 70.4,70.31 54.56,97.76l0 0 -369.04 639.19z"/>
    <path class="fil1 str0" d="M56.66 669.53c15.84,-27.44 65.96,-28.17 111.94,-1.63 45.97,26.55 70.4,70.31 54.56,97.76"/>
   </g>
   <g id="_2059337252256">
    <path class="fil0" d="M-0 918.68c38.67,-12.18 312.91,-134.06 361.54,-150.42l0.67 -0.98 0.18 0.7c3.83,-1.26 6.1,-1.79 6.49,-1.44 19.77,17.53 -52.62,92.13 -95.93,133.79 94.18,-47.65 284.2,-211.65 280.52,-148.82 -4.14,70.86 -81.07,133.64 -133.63,177.1 115.26,-57.56 359.68,-207.52 212.39,-26.47 -22.68,27.89 -87.88,107.11 -102.64,150.1 51.03,12.09 324.25,-203.31 312.05,-144.79 -10.5,50.41 -63.1,117.88 -64.88,134.84 18.86,22.88 346.82,-74.55 389.29,-86.89l2.29 20.78c-68.34,19.84 -135.46,37.8 -204,55.52 -287.51,74.35 -197.35,21.95 -142.81,-110.25 -51.97,29.38 -103.33,61.65 -155.35,90.75 -318.18,178.02 -42.76,-109.38 -3.32,-174.32 -47.45,4.31 -246.06,128.92 -287.17,130.89 -14.66,0.7 -11.68,-7.17 1.04,-20.85 -0.35,-0.13 -0.72,-0.23 -1.1,-0.29 0.59,-0.16 1.26,-0.37 1.9,-0.56 36.18,-38.37 145.31,-120.46 161.39,-187.73 -92.16,51.73 -190.3,129.33 -279.74,167.59 -24.35,10.41 -39.28,-0.73 -20.99,-18.59 62.39,-60.91 64.12,-54.86 104.82,-113.16 -116.04,44.77 -221.34,106.63 -340.99,144.33l-2.03 -20.86z"/>
   </g>
   <path class="fil1" d="M1.02 929.1c129.79,-35.2 246.1,-115.57 364.88,-153.25 -22.8,27.26 -12.29,37.88 -67.65,91.19 -42.3,40.74 -104.54,81.13 -13.33,36.9 50.75,-24.61 241.16,-156.49 262.34,-160.07 3.98,139.33 -398.21,327.06 12.45,127.26 242.4,-117.94 30.9,23.84 -35.58,176.31 -32.2,73.85 301.74,-146.6 311.57,-143.71 -23.14,102.88 -165.33,194.23 60.92,134.8 86.42,-22.7 185.45,-46.67 270.58,-72.75"/>
  </g>
 </g>
</svg>
